<svg width="191" height="26" viewBox="0 0 191 26" fill="none" xmlns="http://www.w3.org/2000/svg">
<path d="M0.556 25V0.231999H9.232C11.44 0.231999 13.24 0.351999 14.632 0.591999C16.024 0.807999 17.116 1.192 17.908 1.744C18.7 2.272 19.264 3.016 19.6 3.976C19.96 4.912 20.188 6.088 20.284 7.504C20.38 8.92 20.428 10.624 20.428 12.616C20.428 14.608 20.38 16.312 20.284 17.728C20.188 19.144 19.96 20.332 19.6 21.292C19.264 22.228 18.7 22.972 17.908 23.524C17.116 24.052 16.024 24.436 14.632 24.676C13.24 24.892 11.44 25 9.232 25H0.556ZM6.82 20.176H9.088C10.072 20.176 10.876 20.152 11.5 20.104C12.124 20.032 12.616 19.888 12.976 19.672C13.36 19.432 13.624 19.048 13.768 18.52C13.936 17.968 14.032 17.224 14.056 16.288C14.104 15.328 14.128 14.104 14.128 12.616C14.128 11.128 14.104 9.916 14.056 8.98C14.032 8.02 13.936 7.276 13.768 6.748C13.6 6.196 13.336 5.8 12.976 5.56C12.616 5.32 12.124 5.176 11.5 5.128C10.876 5.08 10.072 5.056 9.088 5.056H6.82V20.176ZM33.1984 25.288C31.4704 25.288 30.0424 25.18 28.9144 24.964C27.7864 24.748 26.8864 24.412 26.2144 23.956C25.5664 23.476 25.0744 22.864 24.7384 22.12C24.4264 21.376 24.2224 20.488 24.1264 19.456C24.0544 18.424 24.0184 17.224 24.0184 15.856C24.0184 14.2 24.0904 12.772 24.2344 11.572C24.4024 10.372 24.7624 9.388 25.3144 8.62C25.8664 7.852 26.7184 7.288 27.8704 6.928C29.0464 6.544 30.6304 6.352 32.6224 6.352C34.2304 6.352 35.5384 6.472 36.5464 6.712C37.5544 6.928 38.3464 7.276 38.9224 7.756C39.5224 8.212 39.9424 8.812 40.1824 9.556C40.4464 10.3 40.6144 11.2 40.6864 12.256C40.7584 13.288 40.7944 14.488 40.7944 15.856V17.26H29.7424C29.7424 18.076 29.7784 18.736 29.8504 19.24C29.9224 19.72 30.1144 20.08 30.4264 20.32C30.7384 20.56 31.2184 20.728 31.8664 20.824C32.5144 20.896 33.4144 20.932 34.5664 20.932C35.0224 20.932 35.5624 20.92 36.1864 20.896C36.8104 20.872 37.4584 20.836 38.1304 20.788C38.8264 20.74 39.4744 20.692 40.0744 20.644V24.676C39.5464 24.796 38.8984 24.904 38.1304 25C37.3864 25.096 36.5824 25.168 35.7184 25.216C34.8544 25.264 34.0144 25.288 33.1984 25.288ZM35.3584 14.848V14.272C35.3584 13.408 35.3104 12.724 35.2144 12.22C35.1424 11.716 34.9984 11.344 34.7824 11.104C34.5904 10.84 34.3144 10.672 33.9544 10.6C33.5944 10.528 33.1384 10.492 32.5864 10.492C31.9624 10.492 31.4584 10.54 31.0744 10.636C30.7144 10.708 30.4384 10.876 30.2464 11.14C30.0544 11.404 29.9224 11.788 29.8504 12.292C29.7784 12.796 29.7424 13.456 29.7424 14.272H35.9704L35.3584 14.848ZM52.0495 25.288C50.5135 25.288 49.2535 25.156 48.2695 24.892C47.2855 24.604 46.5055 24.208 45.9295 23.704C45.3535 23.176 44.9335 22.528 44.6695 21.76C44.4055 20.992 44.2375 20.116 44.1655 19.132C44.0935 18.124 44.0575 17.02 44.0575 15.82C44.0575 14.644 44.0935 13.564 44.1655 12.58C44.2375 11.596 44.4175 10.72 44.7055 9.952C44.9935 9.16 45.4135 8.5 45.9655 7.972C46.5415 7.444 47.3095 7.048 48.2695 6.784C49.2535 6.496 50.5015 6.352 52.0135 6.352C52.9735 6.352 53.9335 6.4 54.8935 6.496C55.8775 6.592 56.7535 6.736 57.5215 6.928V10.996C57.0415 10.924 56.4175 10.864 55.6495 10.816C54.9055 10.768 54.2095 10.744 53.5615 10.744C52.7215 10.744 52.0615 10.816 51.5815 10.96C51.1015 11.08 50.7415 11.32 50.5015 11.68C50.2615 12.016 50.0935 12.52 49.9975 13.192C49.9255 13.864 49.8895 14.74 49.8895 15.82C49.8895 16.9 49.9255 17.788 49.9975 18.484C50.0935 19.156 50.2615 19.672 50.5015 20.032C50.7415 20.368 51.1135 20.596 51.6175 20.716C52.1215 20.836 52.7815 20.896 53.5975 20.896C54.1735 20.896 54.8215 20.872 55.5415 20.824C56.2855 20.776 56.9935 20.716 57.6655 20.644V24.712C56.8735 24.88 55.9735 25.012 54.9655 25.108C53.9575 25.228 52.9855 25.288 52.0495 25.288ZM69.3976 25.288C67.7656 25.288 66.4096 25.192 65.3296 25C64.2496 24.808 63.3976 24.496 62.7736 24.064C62.1496 23.632 61.6936 23.056 61.4056 22.336C61.1176 21.616 60.9256 20.716 60.8296 19.636C60.7576 18.556 60.7216 17.272 60.7216 15.784C60.7216 14.296 60.7576 13.024 60.8296 11.968C60.9256 10.888 61.1176 9.988 61.4056 9.268C61.6936 8.548 62.1496 7.972 62.7736 7.54C63.3976 7.108 64.2496 6.808 65.3296 6.64C66.4096 6.448 67.7656 6.352 69.3976 6.352C71.0536 6.352 72.4216 6.448 73.5016 6.64C74.5816 6.808 75.4336 7.108 76.0576 7.54C76.6816 7.972 77.1376 8.548 77.4256 9.268C77.7136 9.988 77.8936 10.888 77.9656 11.968C78.0616 13.024 78.1096 14.296 78.1096 15.784C78.1096 17.272 78.0616 18.556 77.9656 19.636C77.8936 20.716 77.7136 21.616 77.4256 22.336C77.1376 23.056 76.6816 23.632 76.0576 24.064C75.4336 24.496 74.5816 24.808 73.5016 25C72.4216 25.192 71.0536 25.288 69.3976 25.288ZM69.3976 20.896C70.1176 20.896 70.6816 20.848 71.0896 20.752C71.4976 20.656 71.7856 20.44 71.9536 20.104C72.1216 19.768 72.2176 19.252 72.2416 18.556C72.2896 17.86 72.3136 16.936 72.3136 15.784C72.3136 14.632 72.2896 13.72 72.2416 13.048C72.2176 12.376 72.1216 11.872 71.9536 11.536C71.7856 11.2 71.4976 10.984 71.0896 10.888C70.6816 10.792 70.1176 10.744 69.3976 10.744C68.6776 10.744 68.1136 10.792 67.7056 10.888C67.3216 10.984 67.0456 11.2 66.8776 11.536C66.7096 11.872 66.6016 12.376 66.5536 13.048C66.5296 13.72 66.5176 14.632 66.5176 15.784C66.5176 16.936 66.5296 17.86 66.5536 18.556C66.6016 19.252 66.7096 19.768 66.8776 20.104C67.0456 20.44 67.3216 20.656 67.7056 20.752C68.1136 20.848 68.6776 20.896 69.3976 20.896ZM81.9703 25V6.64H87.4423L87.5863 9.772H87.9103C88.2463 8.884 88.6663 8.188 89.1703 7.684C89.6983 7.18 90.3343 6.832 91.0783 6.64C91.8223 6.448 92.6863 6.352 93.6703 6.352V11.644C92.1583 11.644 90.9703 11.836 90.1063 12.22C89.2423 12.604 88.6303 13.264 88.2703 14.2C87.9103 15.112 87.7303 16.396 87.7303 18.052V25H81.9703ZM100.848 25.288C99.6963 25.288 98.7243 25.108 97.9323 24.748C97.1403 24.388 96.5403 23.8 96.1323 22.984C95.7483 22.168 95.5563 21.1 95.5563 19.78C95.5563 18.388 95.7123 17.284 96.0243 16.468C96.3603 15.628 96.9483 15.028 97.7883 14.668C98.6283 14.308 99.8163 14.128 101.352 14.128C101.568 14.128 101.868 14.14 102.252 14.164C102.66 14.164 103.116 14.176 103.62 14.2C104.124 14.2 104.628 14.212 105.132 14.236C105.636 14.236 106.092 14.248 106.5 14.272V13.588C106.5 12.892 106.44 12.352 106.32 11.968C106.224 11.584 106.02 11.308 105.708 11.14C105.42 10.948 104.976 10.84 104.376 10.816C103.776 10.768 102.984 10.744 102 10.744C101.448 10.744 100.836 10.756 100.164 10.78C99.5163 10.804 98.8683 10.84 98.2203 10.888C97.5963 10.912 97.0683 10.948 96.6363 10.996V6.928C97.6203 6.76 98.7243 6.628 99.9483 6.532C101.196 6.412 102.504 6.352 103.872 6.352C105.408 6.352 106.68 6.448 107.688 6.64C108.72 6.832 109.548 7.132 110.172 7.54C110.796 7.924 111.252 8.416 111.54 9.016C111.852 9.616 112.056 10.324 112.152 11.14C112.248 11.956 112.296 12.88 112.296 13.912V25H106.752L106.608 22.84H106.32C105.864 23.56 105.336 24.1 104.736 24.46C104.136 24.82 103.5 25.048 102.828 25.144C102.156 25.24 101.496 25.288 100.848 25.288ZM103.584 21.184C104.016 21.184 104.388 21.16 104.7 21.112C105.036 21.04 105.312 20.932 105.528 20.788C105.768 20.62 105.96 20.416 106.104 20.176C106.224 19.912 106.32 19.588 106.392 19.204C106.464 18.82 106.5 18.364 106.5 17.836V17.152H103.152C102.552 17.152 102.096 17.2 101.784 17.296C101.472 17.368 101.256 17.56 101.136 17.872C101.04 18.16 100.992 18.616 100.992 19.24C100.992 19.768 101.052 20.176 101.172 20.464C101.292 20.752 101.532 20.944 101.892 21.04C102.276 21.136 102.84 21.184 103.584 21.184ZM117.099 25V0.231999H133.731V5.056H123.363V10.924H132.399V15.748H123.363V25H117.099ZM142.851 25.288C141.627 25.288 140.643 25.132 139.899 24.82C139.155 24.508 138.591 24.052 138.207 23.452C137.823 22.852 137.571 22.108 137.451 21.22C137.331 20.332 137.271 19.3 137.271 18.124V6.64H143.031V16.36C143.031 17.344 143.055 18.124 143.103 18.7C143.175 19.252 143.295 19.66 143.463 19.924C143.631 20.188 143.883 20.356 144.219 20.428C144.555 20.476 145.011 20.5 145.587 20.5C146.211 20.5 146.703 20.44 147.063 20.32C147.447 20.176 147.723 19.948 147.891 19.636C148.059 19.324 148.167 18.892 148.215 18.34C148.287 17.764 148.323 17.056 148.323 16.216V6.64H154.119V25H148.611L148.467 22.768H148.143C147.807 23.392 147.375 23.896 146.847 24.28C146.319 24.64 145.719 24.892 145.047 25.036C144.375 25.204 143.643 25.288 142.851 25.288ZM158.541 25V6.64H164.013L164.157 9.772H164.481C164.817 8.884 165.237 8.188 165.741 7.684C166.269 7.18 166.905 6.832 167.649 6.64C168.393 6.448 169.257 6.352 170.241 6.352V11.644C168.729 11.644 167.541 11.836 166.677 12.22C165.813 12.604 165.201 13.264 164.841 14.2C164.481 15.112 164.301 16.396 164.301 18.052V25H158.541ZM173.306 25V6.64H178.778L178.922 8.872H179.246C179.606 8.248 180.05 7.756 180.578 7.396C181.106 7.012 181.706 6.748 182.378 6.604C183.05 6.436 183.782 6.352 184.574 6.352C185.798 6.352 186.77 6.508 187.49 6.82C188.234 7.132 188.798 7.588 189.182 8.188C189.566 8.788 189.818 9.532 189.938 10.42C190.082 11.308 190.154 12.34 190.154 13.516V25H184.358V15.28C184.358 14.296 184.334 13.528 184.286 12.976C184.238 12.4 184.13 11.98 183.962 11.716C183.794 11.452 183.53 11.296 183.17 11.248C182.834 11.176 182.378 11.14 181.802 11.14C181.202 11.14 180.71 11.212 180.326 11.356C179.966 11.476 179.69 11.692 179.498 12.004C179.33 12.316 179.21 12.76 179.138 13.336C179.09 13.888 179.066 14.584 179.066 15.424V25H173.306Z" fill="white"/>
</svg>
